<svg width="1080" height="1080" viewBox="0 0 1080 1080" fill="none" xmlns="http://www.w3.org/2000/svg">
<g clip-path="url(#clip0_564_1446)">
<path d="M540 0C241.77 0 0 241.77 0 540C0 838.23 241.77 1080 540 1080C838.23 1080 1080 838.23 1080 540C1080 241.77 838.23 0 540 0ZM900 576C881.64 576 866.51 562.26 864.29 544.5H544.5V864.29C562.26 866.51 576 881.64 576 900C576 919.88 559.88 936 540 936C520.12 936 504 919.88 504 900C504 881.64 517.74 866.51 535.5 864.29V544.5H215.71C213.49 562.26 198.36 576 180 576C160.12 576 144 559.88 144 540C144 520.12 160.12 504 180 504C198.36 504 213.49 517.74 215.71 535.5H535.5V215.71C517.74 213.49 504 198.36 504 180C504 160.12 520.12 144 540 144C559.88 144 576 160.12 576 180C576 198.36 562.26 213.49 544.5 215.71V535.5H864.29C866.51 517.74 881.64 504 900 504C919.88 504 936 520.12 936 540C936 559.88 919.88 576 900 576Z" fill="#D9D9D9"/>
</g>
<defs>
<clipPath id="clip0_564_1446">
<rect width="1080" height="1080" fill="white"/>
</clipPath>
</defs>
</svg>
