<svg width="320" height="320" viewBox="0 0 320 320" fill="none" xmlns="http://www.w3.org/2000/svg">
<g clip-path="url(#clip0_1148_3669)">
<path d="M163.566 0.19803L160.138 -0.000488281L163.569 0.129882C164.387 0.168401 165.208 0.17729 166.029 0.189141L160.138 -0.000488281L166.998 0.144697V0.206919C166.998 0.206919 167.003 0.206919 167.006 0.206919L166.983 0.449882C165.845 0.366919 164.707 0.257289 163.563 0.19803H163.566ZM173.709 1.76544L173.875 0.885438C173.857 0.885438 173.839 0.879512 173.821 0.876549L173.851 0.589141C176.123 0.861734 178.402 1.08396 180.683 1.33285L180.586 1.94914C180.639 1.95803 180.692 1.96692 180.746 1.97285L180.18 3.93729C178.046 3.19359 175.889 2.44988 173.706 1.76544H173.709ZM178.464 1.62025C177.712 1.49581 176.959 1.37729 176.203 1.25581C176.953 1.38025 177.709 1.5047 178.464 1.62025ZM189.119 8.8084C190.061 9.4247 190.98 10.0706 191.892 10.7017L194.488 5.58766C194.263 5.52247 194.043 5.45729 193.818 5.3921L194.263 3.72988C191.999 3.27951 189.735 2.85581 187.489 2.37877L187.255 3.48988C187.371 3.52247 187.483 3.55803 187.599 3.59062L186.281 6.94173C187.243 7.54322 188.18 8.1921 189.119 8.8084ZM201.273 20.1477L208.159 11.2499C207.587 10.9951 207.033 10.7432 206.467 10.4914L207.676 7.3447C205.439 6.69581 203.208 6.05877 200.995 5.38618L200.206 7.81285C200.559 7.96692 200.906 8.12692 201.255 8.28099L196.918 15.1373C198.429 16.8025 199.878 18.4825 201.27 20.1477H201.273ZM204.882 25.6262C205.878 27.5936 206.811 29.5403 207.691 31.4514L221.572 19.1995L218.322 17.1106L220.846 12.1803C218.651 11.324 216.461 10.4854 214.298 9.61136L212.446 13.7595C213.208 14.2158 213.955 14.684 214.707 15.1462L204.882 25.6262ZM209.667 37.4958L210.26 40.6069C210.443 41.6321 210.654 42.6158 210.802 43.6203L233.937 29.9965L238.538 34.8143L246.129 25.5047L239.966 21.7151L234.212 29.5847L231.205 26.8795L229.199 25.1077L233.691 18.2336L227.315 15.0543L223.747 21.2054C225.083 22.2603 226.393 23.3358 227.706 24.4054L209.667 37.5017V37.4958ZM240.375 36.0647L211.101 49.6973C210.941 51.7506 210.811 53.7032 210.606 55.5936L245.329 43.3595L246.716 45.2617L258.085 33.9936L252.168 29.6084L243.158 39.5373C242.23 38.358 241.306 37.1995 240.375 36.0677V36.0647ZM260.817 73.3595C260.31 71.7417 259.795 70.1477 259.27 68.5743L205.054 71.1699L203.667 73.3684L202.186 75.4306L261.623 78.2543L262.218 80.5269L289.721 66.8825L284.989 60.6306L261.036 74.1684C260.962 73.8988 260.891 73.6232 260.817 73.3566V73.3595ZM264.639 110.168L191.961 84.5832C190.642 85.2588 189.486 85.8928 188.387 86.4736L263.11 121.244C263.347 119.774 263.563 118.32 263.777 116.865L311.895 110.352L309.051 102.456L264.541 110.962C264.571 110.699 264.612 110.432 264.639 110.171V110.168ZM259.294 135.176L257.937 139.028L319.101 143.922L317.952 135.268L259.798 133.742L259.759 133.854C259.946 133.324 260.135 132.797 260.313 132.266L184.882 87.8662C183.611 88.1803 182.547 88.524 181.516 88.8203L256.251 143.057C257.306 140.414 258.343 137.798 259.294 135.179V135.176ZM218.236 187.875L168.174 89.3299C167.821 89.244 167.478 89.1521 167.166 89.1077C166.855 89.0662 166.562 89.0365 166.283 89.0336L207.43 193.422C206.998 193.638 206.55 193.848 206.126 194.068L267.848 278.4C270.198 276.168 272.521 273.92 274.814 271.665L210.233 192.545C211.158 192.029 212.088 191.525 213.006 191.001C213.341 190.808 213.673 190.61 214.005 190.414L281.329 264.542C283.374 262.05 285.386 259.555 287.371 257.057L217.792 188.145C217.94 188.056 218.088 187.964 218.236 187.875ZM196.366 198.835L164.606 88.7521C164.322 88.6395 164.061 88.598 163.806 88.5477C163.549 88.4943 163.312 88.4973 163.078 88.521L184.405 201.531C184.002 201.629 183.599 201.721 183.202 201.831L218.144 309.155C221.193 307.917 224.212 306.613 227.22 305.309L187.279 201.614C188.355 201.315 189.43 201.007 190.497 200.681C190.701 200.619 190.903 200.557 191.107 200.494L236.023 300.921C238.885 299.324 241.709 297.665 244.518 296.011L194.968 199.288C195.433 199.137 195.901 198.992 196.363 198.835H196.366ZM172.432 204.488L161.62 88.361C161.113 88.2158 160.633 88.1951 160.147 88.2958L160.195 204.237C160.195 204.237 160.195 204.237 160.192 204.237L160.269 320C163.546 319.92 166.826 319.828 170.1 319.685L164.115 205.042C165.415 204.98 166.71 204.906 168.008 204.82L179.919 318.776C183.178 318.296 186.432 317.792 189.679 317.259L171.892 204.53C172.073 204.515 172.251 204.506 172.432 204.488ZM157.972 88.281C157.732 88.3106 157.489 88.3373 157.229 88.4262L135.798 202.465C136.162 202.542 136.532 202.607 136.897 202.678L102.31 309.365C105.401 310.494 108.512 311.579 111.643 312.616L140.766 203.401C141.128 203.466 141.489 203.531 141.851 203.594C142.772 203.757 143.694 203.908 144.618 204.05L121.163 315.285C124.375 316.017 127.596 316.722 130.832 317.362L148.627 203.597C148.432 203.564 148.233 203.54 148.038 203.511L158.672 88.3195C158.441 88.278 158.209 88.2484 157.969 88.281H157.972ZM83.4361 172.648L147.735 89.4988C146.965 89.4306 146.091 89.4277 145.092 89.4603L75.7057 163.543C76.4701 164.497 77.2642 165.442 78.0494 166.391L4.46421 198.118C5.25532 201.093 6.04347 204.1 6.91458 207.096L81.2524 170.154C81.9783 170.986 82.6924 171.825 83.4331 172.648H83.4361ZM55.8894 88.6543L121.649 79.078C120.627 77.9551 119.546 76.7521 118.411 75.4514L57.8331 78.3758C57.6968 79.0306 57.5694 79.7091 57.4361 80.3699L30.3249 66.9625L25.8212 73.5165L56.2627 86.5714C56.1412 87.2677 56.0079 87.9521 55.8924 88.6543H55.8894ZM68.9531 50.9358L111.137 61.2884C110.692 59.5106 110.289 57.6558 109.875 55.7003L74.0731 43.1136C73.6938 43.6736 73.3175 44.2543 72.9383 44.8232L62.0198 34.0232C60.1116 35.5788 58.2272 37.1817 56.2746 38.7491L69.3294 50.358C69.2049 50.5506 69.0835 50.7373 68.959 50.9328L68.9531 50.9358ZM110.713 37.6114C111.294 35.6291 111.952 33.6143 112.657 31.5551L98.9857 19.5017C99.9694 18.7995 100.944 18.0943 101.943 17.404L99.282 12.2188L92.8138 15.0928L96.2153 20.9388L92.0464 24.0736L110.713 37.6114ZM115.439 25.721C116.574 23.9077 117.768 22.0706 119.024 20.2306L112.227 11.4573C112.725 11.1965 113.214 10.9269 113.712 10.6691L112.443 7.38618C110.257 8.16247 108.043 8.89729 105.827 9.64988L107.608 13.6262C106.832 14.044 106.058 14.4588 105.267 14.8825L115.439 25.721ZM123.356 15.2054C124.162 14.4558 124.983 13.7091 125.821 12.9743C126.657 12.2336 127.498 11.484 128.363 10.758L125.789 5.69433C125.963 5.6321 126.138 5.56396 126.313 5.50173L125.848 3.7684C123.62 4.34618 121.371 4.87359 119.119 5.42766L119.881 7.76544C119.543 7.88692 119.211 8.01433 118.87 8.13581L123.353 15.2114L123.356 15.2054ZM133.963 6.98322C135.955 5.9521 137.99 4.95359 140.052 3.96692L139.486 2.0084C139.486 2.0084 139.513 2.00247 139.528 1.99951L139.427 1.35655C137.166 1.73581 134.894 2.05581 132.621 2.4084L132.849 3.47803C132.766 3.49581 132.686 3.51655 132.603 3.53433L133.963 6.98025V6.98322ZM250.449 51.081L209.38 61.1936C208.74 63.0277 208.129 64.761 207.492 66.4084L255.537 59.4306C254.974 58.3284 254.414 57.2528 253.854 56.1773L269.415 43.724L263.818 38.7165L250.283 50.7817L250.449 51.081ZM258.624 68.3432L280.011 54.6928L274.808 49.0603L256.236 62.364L258.624 68.3462V68.3432ZM264.678 105.01L305.842 94.7965L302.286 87.398L264.918 98.8617C264.796 96.7936 264.645 94.7551 264.47 92.7373L298.387 80.2751L294.203 73.4306L263.403 86.684L263.641 88.4647L198.965 79.0958L195.516 82.1388L264.633 99.1314L264.678 105.013V105.01ZM261.389 128.263L316.361 126.782L314.337 118.468L262.689 122.637L261.389 128.263ZM253.442 148.971L319.999 161.641C319.955 158.642 319.881 155.668 319.792 152.72L255.815 144.106L253.445 148.971H253.442ZM248.112 158.038L318.849 179.691C319.166 176.657 319.433 173.638 319.682 170.642L250.876 153.617C249.925 155.114 248.992 156.58 248.112 158.038ZM244.873 162.61C246.998 159.588 249.03 156.527 250.941 153.451L178.334 89.3921C177.229 89.4573 176.254 89.5373 175.395 89.6677L244.372 163.238C243.59 164.234 242.826 165.226 242.079 166.204L315.578 197.786C316.242 194.758 316.9 191.754 317.486 188.752L245.166 162.234C245.066 162.361 244.971 162.485 244.87 162.61H244.873ZM236.639 172.269L172.722 89.7062C171.803 89.5906 171.015 89.5432 170.316 89.5728L227.972 180.634C228.215 180.417 228.449 180.195 228.689 179.979L302.598 232.874C303.978 230.02 305.329 227.176 306.648 224.337L232.144 176.826C233.312 175.733 234.446 174.622 235.575 173.508L310.156 215.611C311.184 212.648 312.183 209.697 313.152 206.758L238.835 169.94L236.633 172.269H236.639ZM221.217 185.383L292.956 249.277C294.678 246.583 296.366 243.89 298.029 241.197L224.897 182.722C223.641 183.611 222.414 184.497 221.217 185.383ZM198.488 197.315L252.678 290.601C255.303 288.669 257.892 286.696 260.461 284.722L202.31 195.78C201.009 196.281 199.729 196.776 198.485 197.315H198.488ZM175.575 203.185L199.332 315.143C202.515 314.281 205.682 313.365 208.838 312.438L179.392 202.577C178.106 202.755 176.835 202.942 175.575 203.182V203.185ZM140.606 318.844C143.878 319.164 147.152 319.487 150.432 319.721L156.31 204.16C155.033 204.032 153.747 203.991 152.461 203.946L140.606 318.844ZM129.599 199.76L84.3812 301.185C87.2968 302.681 90.242 304.133 93.2109 305.549L133.403 200.817C132.159 200.426 130.894 200.071 129.596 199.76H129.599ZM124.251 197.991L155.718 88.6277C155.223 88.6069 154.686 88.684 154.061 88.8854L112.642 194.168C113.024 194.346 113.418 194.509 113.803 194.684L52.4375 278.728C54.8761 280.853 57.3442 282.965 59.8538 285.04L117.664 196.402C118.935 196.948 120.218 197.469 121.501 197.991L67.6701 290.906C70.3664 292.734 73.0953 294.536 75.8538 296.296L125.786 198.548C125.285 198.349 124.758 198.18 124.251 197.994V197.991ZM106.811 189.952L38.8968 264.888C41.0509 267.265 43.2198 269.656 45.4479 272L110.58 192.023C109.368 191.303 108.094 190.637 106.811 189.949V189.952ZM102.426 187.291L152.203 89.1521C151.596 89.1284 150.9 89.2203 150.1 89.3773L92.6746 180.189C92.479 180.038 92.2953 179.884 92.0938 179.736L17.519 233.235C18.9916 236.026 20.559 238.776 22.1205 241.552L95.1012 183.066C96.3072 183.982 97.5279 184.882 98.7605 185.774L27.205 249.644C29.0479 252.237 30.9235 254.826 32.8257 257.413L103.048 187.712C102.843 187.573 102.63 187.434 102.426 187.294V187.291ZM85.122 173.389L9.92199 215.961C11.0479 218.871 12.2301 221.78 13.4598 224.684L88.562 176.672C87.4657 175.576 86.322 174.482 85.122 173.392V173.389ZM72.5264 158.059L1.16939 180.005C1.59902 183.01 2.05532 186.035 2.53828 189.081L75.4746 162.225L72.5264 158.059ZM69.5753 153.327L142.192 89.1906C141.261 88.9891 140.221 88.8084 139.048 88.6277L64.2835 142.954L62.6716 139.14L0.879023 144.171L0.194579 152.992L64.2687 144.272C65.0538 145.893 65.8598 147.514 66.7012 149.131L-0.000976562 161.928C0.0849494 164.909 0.191616 167.917 0.321986 170.945L69.762 153.662L69.5753 153.327ZM60.2627 132.168L135.706 87.7002L134.041 87.0484C133.454 86.8262 132.876 86.5773 132.218 86.3432L57.5694 121.14L56.8464 117.057L8.08791 110.527L5.64347 118.663L57.1872 122.752C57.5131 124.151 57.8598 125.546 58.2153 126.954C58.3398 127.434 58.4761 127.92 58.6035 128.402L3.61976 126.998L2.77236 131.226L2.02865 135.499L60.7931 133.875L60.2687 132.171L60.2627 132.168ZM56.0849 110.091L128.657 84.4884L125.101 82.0795L55.0242 99.3625C55.0212 101.238 55.0568 103.131 55.119 105.04L14.1472 94.9328L10.9383 102.61L56.1472 111.185L56.0849 110.091ZM56.2183 93.0395L21.6168 80.3788L17.7146 87.5195L55.8272 99.1551L56.2183 93.0395ZM61.6701 68.684L115.519 71.2203C114.731 69.7358 113.904 68.1625 113.054 66.4854L65.4568 59.6114C65.9161 58.6395 66.3842 57.6677 66.8553 56.6928L50.6687 43.7684C48.8909 45.5373 47.1012 47.324 45.2612 49.1047L63.3738 62.0469C62.5531 64.0114 61.7412 66.0054 60.9472 68.0499L40.0553 54.7491L35.0598 60.6988L59.7531 74.6158C60.3812 72.6603 60.9975 70.6691 61.6701 68.684ZM80.485 36.3995L109.344 49.8128C109.371 47.8484 109.507 45.8484 109.611 43.7388L86.3486 30.0588L91.2079 25.561L86.4346 18.2691L80.1561 21.7536L86.162 29.9491L85.7235 29.6914C84.2331 31.2084 82.7457 32.7966 81.2316 34.4054L73.9872 25.5432L67.9427 29.641L77.4242 40.0677L80.482 36.4025L80.485 36.3995ZM146.289 0.89729L146.26 0.606919L153.107 0.156549V0.224697C153.146 0.221734 153.181 0.218771 153.217 0.212845L153.241 0.458771C152.112 0.648401 150.989 0.870623 149.869 1.09581C148.749 1.31803 147.629 1.53433 146.521 1.78618L146.352 0.894327L146.289 0.900252V0.89729ZM151.569 0.381734L148.755 0.65729C149.101 0.624697 149.448 0.59803 149.795 0.565438C150.39 0.512104 150.98 0.440993 151.569 0.381734Z" fill="#3535d0"/>
</g>
<defs>
<clipPath id="clip0_1148_3669">
<rect width="320" height="320" fill="white"/>
</clipPath>
</defs>
</svg>
